<svg id="Body" xmlns="http://www.w3.org/2000/svg" viewBox="0 0 277.49 495.07">
  <defs>
    <style>
      .body-part {
        fill: #e0e1e6;
      }

      .muscle {
        fill: #515761;
      }
    </style>
  </defs>
  <path id="bodyBack" class="body-back body-part" d="M278.54,266.91l-9.63-16.41a0.9,0.9,0,0,1,0-.92l0.52-.45,1.93,1.51a4.36,4.36,0,0,0,5.53-.25l-6.17-8.16a19.27,19.27,0,0,0-5.28-4.8l-6.34-3.9a13.68,13.68,0,0,1-5.17-5.73L243.48,206a34.53,34.53,0,0,1-1.89-4.82l-4-12.91a60.26,60.26,0,0,0-12.75-22.54l-5.35-6c-0.17-5.09,0-18.7-9-31.71-1.59-8.26,3.32-31-13.31-40.43-5.14-2.91-24.29-5.2-24.29-5.2L162.11,75.7c-3.54-2.06-7.54-9.38-7.54-13.47V54.52l0.62-3.12c3.82-5.82,6.53-13.18,6.53-20.39,0-15.59-5.6-28.55-21.78-28.55s-21.78,13-21.78,28.55c0,7.34,2.81,14.83,6.73,20.7l0.55,2.8v7.71c0,4.09-4,11.4-7.54,13.47l-10.77,6.78S88,84.77,82.83,87.68C66.2,97.09,71.1,119.85,69.52,128.11c-9,13-8.87,26.62-9,31.71l-5.35,6a60.26,60.26,0,0,0-12.75,22.54l-4,12.91A34.53,34.53,0,0,1,36.52,206L26.05,227.8a13.68,13.68,0,0,1-5.17,5.73l-6.34,3.9a19.26,19.26,0,0,0-5.28,4.8L3.1,250.39a4.36,4.36,0,0,0,5.53.25l1.93-1.51,0.52,0.45a0.9,0.9,0,0,1,0,.92L1.46,266.91A1.51,1.51,0,0,0,4,268.57L12.53,257a0.9,0.9,0,0,1,1.54.9L6.63,274.16a1.65,1.65,0,0,0,2.93,1.49l8.89-15.8a0.9,0.9,0,0,1,.88-0.45l0.28,0a0.9,0.9,0,0,1,.75,1.2l-5.86,15.88a2,2,0,0,0,3.68,1.44l7.1-17.22a0.9,0.9,0,0,1,1.1-.51h0a0.9,0.9,0,0,1,.62.93l-1.07,12.43A1.55,1.55,0,0,0,29,274l2.4-14.59,3.6-5.87a45.46,45.46,0,0,0,4.56-11.57l2-8.29,9.61-16.21c1.5-2.54,18.53-22.69,23.6-30.27s7.71-14.37,9.35-24.15c2.29-3.77,5.11-11.45,7-20.74v0.1c9.84,19.41,10.39,35,8.63,48.4C99,197.25,98.73,207,98.3,210.64c-0.58,4.94-.86,8.05-4.83,19.32-4.83,19.32-4.83,33.32-4.83,33.32S88.09,302,93.21,330.84c0.51,2.88,1.07,5.65,1.71,8.28a68.06,68.06,0,0,0,0,26.08L92.86,376a42.66,42.66,0,0,0-.74,8.83s0,15.32.4,20.42c0.71,10.48,3.9,39,5.63,52.47a23.49,23.49,0,0,1,.17,2.92,37.19,37.19,0,0,1-2.63,13.69,8.8,8.8,0,0,1-2.22,2.81L74,489.07a2.93,2.93,0,0,1-.72.39l-9.54,3.17a2.6,2.6,0,0,0-1.66,2.3v0.18a2.43,2.43,0,0,0,2.42,2.42H88.64c1.4,0,18.15-2.56,27.17-4a6.95,6.95,0,0,0,5.68-6.66,3.62,3.62,0,0,0-.7-1.86,17.36,17.36,0,0,1-3.17-9.13V439.57L122,415.09a86,86,0,0,0,.62-26.48l-2.11-16.17,1.56-3.68a62.58,62.58,0,0,0,4.66-18.48l2.11-22.35a72,72,0,0,1,1.13-7.52l4.84-23.57a79.45,79.45,0,0,0,1.64-16.09v-17l0.94-.52h5.2l0.94,0.52v17a79.45,79.45,0,0,0,1.64,16.09L150,320.42a71.88,71.88,0,0,1,1.13,7.52l2.11,22.35a62.59,62.59,0,0,0,4.66,18.48l1.56,3.68-2.11,16.17a86,86,0,0,0,.62,26.48l4.39,24.48v36.36a17.36,17.36,0,0,1-3.17,9.13,3.62,3.62,0,0,0-.7,1.86,6.95,6.95,0,0,0,5.68,6.66c9,1.4,25.76,4,27.17,4H215.5a2.43,2.43,0,0,0,2.42-2.42v-0.18a2.6,2.6,0,0,0-1.66-2.3l-9.54-3.17a2.93,2.93,0,0,1-.72-0.39l-19.46-11.89a8.8,8.8,0,0,1-2.22-2.81,37.19,37.19,0,0,1-2.63-13.69,23.44,23.44,0,0,1,.17-2.92c1.73-13.42,4.92-42,5.63-52.47,0.35-5.1.4-20.42,0.4-20.42a42.63,42.63,0,0,0-.75-8.83l-2.06-10.83a68.07,68.07,0,0,0,0-26.08c0.63-2.63,1.2-5.4,1.71-8.28,5.13-28.79,4.57-67.55,4.57-67.55s0-14-4.83-33.32c-4-11.27-4.24-14.38-4.83-19.32-0.43-3.61-.66-13.39-1.52-19.88-1.76-13.36-1.22-29,8.63-48.4v-0.1c1.93,9.29,4.76,17,7,20.74,1.64,9.78,4.08,16.57,9.15,24.15s22.29,27.73,23.8,30.27l9.61,16.21,2,8.29A45.46,45.46,0,0,0,245,253.51l3.6,5.87L251,274a1.55,1.55,0,0,0,3.08-.39L253,261.15a0.9,0.9,0,0,1,.62-0.93h0a0.9,0.9,0,0,1,1.1.51l7.1,17.22a2,2,0,0,0,3.68-1.44l-5.86-15.88a0.9,0.9,0,0,1,.75-1.2l0.28,0a0.9,0.9,0,0,1,.88.45l8.89,15.8a1.65,1.65,0,0,0,2.93-1.49l-7.44-16.29a0.9,0.9,0,0,1,1.54-.9l8.56,11.6A1.51,1.51,0,0,0,278.54,266.91Z" transform="translate(-1.25 -2.47)"/>
  <g id="muscleArmsBack" class="muscle-arms-back">
    <path class="muscle" d="M72.46,128.68l-0.12.62-0.36.52c-8,11.53-8.33,23.42-8.48,29.13l0,0.65a1.83,1.83,0,0,0,1,1.57l9.36,4.46a1.88,1.88,0,0,0,1.6-.08l5.91-3.6,0.3-.49c1.79-2.95,4.6-9.87,6.65-19.71,0,0,0-.12,0-0.16l2.43-21c0.18-1.57-.86-2.35-2.32-1.74l-14.68,6.15a1.84,1.84,0,0,0-1,1.44C72.63,127.22,72.56,128.19,72.46,128.68Z" transform="translate(-1.25 -2.47)"/>
    <path class="muscle" d="M108.51,95.21a1.87,1.87,0,0,0,.23-1.63l-2.62-6.69h0a1.77,1.77,0,0,0-1.79-1c-7.25,1-17.1,2.78-20,4.42-11.24,6.36-11.32,20-11.39,30,0,0.52,0,1,0,1.51l22-9.05a2,2,0,0,0,.7-0.54Z" transform="translate(-1.25 -2.47)"/>
    <path class="muscle" d="M207.54,128.68l0.12,0.62,0.36,0.52c8,11.53,8.33,23.42,8.48,29.13l0,0.65a1.83,1.83,0,0,1-1,1.57l-9.36,4.46a1.88,1.88,0,0,1-1.6-.08l-5.91-3.6-0.3-.49c-1.79-2.95-4.6-9.87-6.65-19.71,0,0,0-.12,0-0.16l-2.43-21c-0.18-1.57.86-2.35,2.32-1.74l14.68,6.15a1.84,1.84,0,0,1,1,1.44C207.37,127.22,207.44,128.19,207.54,128.68Z" transform="translate(-1.25 -2.47)"/>
    <path class="muscle" d="M171.49,95.21a1.87,1.87,0,0,1-.23-1.63l2.62-6.69h0a1.77,1.77,0,0,1,1.79-1c7.25,1,17.1,2.78,20,4.42,11.24,6.36,11.32,20,11.39,30,0,0.52,0,1,0,1.51l-22-9.05a2,2,0,0,1-.7-0.54Z" transform="translate(-1.25 -2.47)"/>
  </g>
  <g id="muscleLegsBack" class="muscle-legs-back">
    <path class="muscle" d="M102,367.71a1.56,1.56,0,0,0-2.63.9,119.23,119.23,0,0,0-3,44.31c2.56,19.35,9.34,24.19,12.34,25.4a1.72,1.72,0,0,0,2.11-.78c2.22-4.2,9.41-19.19,9.5-37.29,0.07-13.31-3.22-20.07-4-21.56a2,2,0,0,0-.45-0.52Z" transform="translate(-1.25 -2.47)"/>
    <path class="muscle" d="M108,291.31a2,2,0,0,0-.52.11l-11.07,4.38-0.13.05,3.9,42.35a2,2,0,0,1,0,.27l-1.58,22a1.88,1.88,0,0,0,.66,1.46l2.56,1.93,12.46,9.4a1.54,1.54,0,0,0,2.67-1.1l2.81-19.53,4.8-47.77a2,2,0,0,0,0-.58L121,290.33a1.65,1.65,0,0,0-2.18-1.16A41.74,41.74,0,0,1,108,291.31Z" transform="translate(-1.25 -2.47)"/>
    <path class="muscle" d="M99.78,228.85l-7.54,43.83a2,2,0,0,0,0,.54L95,290.94a1.61,1.61,0,0,0,2.28,1.3l9.58-3.79a2,2,0,0,1,.55-0.12c2-.09,14.75-1,20.6-9,6.37-8.7,8-20-.05-32.08-6.47-9.7-20.55-17.16-25.78-19.69A1.59,1.59,0,0,0,99.78,228.85Z" transform="translate(-1.25 -2.47)"/>
    <path class="muscle" d="M178,367.71a1.56,1.56,0,0,1,2.63.9,119.23,119.23,0,0,1,3,44.31c-2.56,19.35-9.34,24.19-12.34,25.4a1.72,1.72,0,0,1-2.11-.78c-2.22-4.2-9.41-19.19-9.5-37.29-0.07-13.31,3.22-20.07,4-21.56a2,2,0,0,1,.45-0.52Z" transform="translate(-1.25 -2.47)"/>
    <path class="muscle" d="M172,291.31a2,2,0,0,1,.52.11l11.07,4.38,0.13,0.05-3.9,42.35a2,2,0,0,0,0,.27l1.58,22a1.88,1.88,0,0,1-.66,1.46l-2.56,1.93-12.46,9.4a1.54,1.54,0,0,1-2.67-1.1l-2.81-19.53-4.8-47.77a2,2,0,0,1,0-.58L159,290.33a1.65,1.65,0,0,1,2.18-1.16A41.74,41.74,0,0,0,172,291.31Z" transform="translate(-1.25 -2.47)"/>
    <path class="muscle" d="M180.22,228.85l7.54,43.83a2,2,0,0,1,0,.54L185,290.94a1.61,1.61,0,0,1-2.28,1.3l-9.58-3.79a2,2,0,0,0-.55-0.12c-2-.09-14.75-1-20.6-9-6.37-8.7-8-20,.05-32.08,6.47-9.7,20.55-17.16,25.78-19.69A1.59,1.59,0,0,1,180.22,228.85Z" transform="translate(-1.25 -2.47)"/>
  </g>
  <g id="muscleBack"  class="muscle-back">
    <path class="muscle" d="M93.11,126.43L92.47,136.8a2.39,2.39,0,0,0,.11.79l1.36,3.88L93.87,141c6.41,12.65,8.92,23.57,9.57,32.88a97.5,97.5,0,0,1,.34,18.83c-1.09,14.3,1.8,23.56,4.15,28.52,1.38,2.92,3,2.75,3.77-.39l7.67-33.36a2.38,2.38,0,0,1,.41-0.83l17.33-21a2.21,2.21,0,0,0,.31-2l-18.36-45a2,2,0,0,0-2.47-1.15l-22.1,7.17A2.16,2.16,0,0,0,93.11,126.43Z" transform="translate(-1.25 -2.47)"/>
    <path class="muscle" d="M186.89,126.43l0.64,10.37a2.39,2.39,0,0,1-.11.79l-1.36,3.88,0.08-.47c-6.41,12.65-8.92,23.57-9.57,32.88a97.5,97.5,0,0,0-.34,18.83c1.09,14.3-1.8,23.56-4.15,28.52-1.38,2.92-3,2.75-3.77-.39l-7.67-33.36a2.38,2.38,0,0,0-.41-0.83l-17.33-21a2.21,2.21,0,0,1-.31-2l18.36-45a2,2,0,0,1,2.47-1.15l22.1,7.17A2.16,2.16,0,0,1,186.89,126.43Z" transform="translate(-1.25 -2.47)"/>
    <path class="muscle" d="M170.1,84.33l-9.69-6.09c-3.35-2-6.9-7.39-8.31-12.18a1.77,1.77,0,0,0-1.6-1.18H129.4a1.77,1.77,0,0,0-1.6,1.18c-1.41,4.79-5,10.22-8.31,12.18l-9.69,6.09a1.75,1.75,0,0,0-.66,2.06l30.79,75.48h0l30.79-75.48A1.75,1.75,0,0,0,170.1,84.33Z" transform="translate(-1.25 -2.47)"/>
  </g>
</svg>
